STARTFONT 2.1
FONT HAN-GB2312
SIZE 16 72 72
FONTBOUNDINGBOX 8 16 0 0
STARTPROPERTIES 1
BITCOUNT 8
ENDPROPERTIES
CHARS 26
STARTCHAR  00A4
ENCODING  164
SWIDTH  1000 0
DWIDTH  9 0
BBX  9 9 0 2
BITMAP
000010000000100000
0060F0A0A0A0F04000
30FFFFFFFFFFFFFF30
00E0FF601080FFE000
00FFF0000010FFE000
00E0FF300040FFE000
40FFFFF0C0F0FFFF30
0080FFE0FFE0FF6000
000020000000300000
ENDCHAR
STARTCHAR  00A7
ENCODING  167
SWIDTH  1000 0
DWIDTH  7 0
BBX  5 13 1 0
BITMAP
30E0FFE040
E0E0F0FFF0
FFA080F0F0
C0FFC01000
20F0FFE020
A0FFFFFFC0
FFF0A0FFFF
E0FFE0FFA0
40FFFFE010
0040FFFFA0
F0E0A0FFF0
E0FFE0FFE0
40E0FFE030
ENDCHAR
STARTCHAR  00A8
ENCODING  168
SWIDTH  1000 0
DWIDTH  7 0
BBX  5 2 1 11
BITMAP
FFE000E0FF
C0A000A0C0
ENDCHAR
STARTCHAR  00B0
ENCODING  176
SWIDTH  1000 0
DWIDTH  5 0
BBX  3 3 1 10
BITMAP
80F080
F030F0
80F080
ENDCHAR
STARTCHAR  00B1
ENCODING  177
SWIDTH  1000 0
DWIDTH  8 0
BBX  8 9 0 0
BITMAP
00000000E0000000
00000000E0000000
00000000E0000000
00E0E0E0FFE0E0E0
00000000E0000000
00000000E0000000
00000000E0000000
0000000000000000
10E0E0E0E0E0E0C0
ENDCHAR
STARTCHAR  00D7
ENCODING  215
SWIDTH  1000 0
DWIDTH  11 0
BBX  12 10 -1 1
BITMAP
000020200000000030400000
0030F0E030000030F0F06000
00C0FFFFF06030F0FFFFA000
0000A0FFFFFFF0FFFFA00000
00000080FFFFFFFFA0000000
00000040F0FFFFFFC0100000
000040F0FFFFF0FFFFE01000
0040F0FFFFA010C0FFFFE010
0060FFFFA0000000A0FFE010
000040A00000000000602000
ENDCHAR
STARTCHAR  00E0
ENCODING  224
SWIDTH  1000 0
DWIDTH  8 0
BBX  7 15 0 0
BITMAP
00108080000000
000060FFA00000
00000060FF6000
00000000000000
0080E0FFE06000
60FFFFE0FFFF40
80F0C000FFFF80
00003080FFFFA0
10C0FFFFFFFFA0
A0FFFF80FFFFA0
F0FFA000FFFFA0
FFFFA000FFFFA0
FFFFA010FFFFA0
E0FFF0E0FFFFA0
40E0FFA0FFFFA0
ENDCHAR
STARTCHAR  00E1
ENCODING  225
SWIDTH  1000 0
DWIDTH  8 0
BBX  7 15 0 0
BITMAP
00000030806000
000010E0E02000
0000C0E0200000
00000000000000
0080E0FFE06000
60FFFFE0FFFF40
80F0C000FFFF80
00003080FFFFA0
10C0FFFFFFFFA0
A0FFFF80FFFFA0
F0FFA000FFFFA0
FFFFA000FFFFA0
FFFFA010FFFFA0
E0FFF0E0FFFFA0
40E0FFA0FFFFA0
ENDCHAR
STARTCHAR  00E8
ENCODING  232
SWIDTH  1000 0
DWIDTH  8 0
BBX  7 15 0 0
BITMAP
00108080000000
000060FFA00000
00000060FF6000
00000000000000
0080E0FFC03000
80FFFFE0FFF020
F0FFA010FFFF80
FFFFA000FFFF80
FFFFFFFFFFFFA0
FFFFE0C0C0C060
FFFFA000808040
FFFFA000FFFF80
F0FFA010FFFF80
80FFF0E0FFF020
0080E0FFC03000
ENDCHAR
STARTCHAR  00E9
ENCODING  233
SWIDTH  1000 0
DWIDTH  8 0
BBX  7 15 0 0
BITMAP
00000030806000
000010E0E02000
0000C0E0200000
00000000000000
0080E0FFC03000
80FFFFE0FFF020
F0FFA010FFFF80
FFFFA010FFFF80
FFFFFFFFFFFFA0
FFFFFFFFFFFFA0
FFFFA000404020
FFFFA000FFFFA0
F0FFA010FFFF80
80FFF0E0FFF020
0080E0FFC03000
ENDCHAR
STARTCHAR  00EA
ENCODING  234
SWIDTH  1000 0
DWIDTH  8 0
BBX  7 15 0 0
BITMAP
00006080100000
0040FFF0A00000
20F08030F08000
00000000000000
0080E0FFC03000
80FFFFE0FFF020
F0FFA010FFFF80
FFFFA000FFFF80
FFFFFFFFFFFFA0
FFFFE0C0C0C060
FFFFA000808040
FFFFA000FFFF80
F0FFA010FFFF80
80FFF0E0FFF020
0080E0FFC03000
ENDCHAR
STARTCHAR  00EC
ENCODING  236
SWIDTH  1000 0
DWIDTH  5 0
BBX  5 15 0 0
BITMAP
4080400000
00C0F03000
0010C0E010
0000000000
00FFFFA000
00FFFFA000
00FFFFA000
00FFFFA000
00FFFFA000
00FFFFA000
00FFFFA000
00FFFFA000
00FFFFA000
00FFFFA000
00FFFFA000
ENDCHAR
STARTCHAR  00ED
ENCODING  237
SWIDTH  1000 0
DWIDTH  5 0
BBX  5 15 0 0
BITMAP
0000808010
0080FF6000
40FF800000
0000000000
00FFFFA000
00FFFFA000
00FFFFA000
00FFFFA000
00FFFFA000
00FFFFA000
00FFFFA000
00FFFFA000
00FFFFA000
00FFFFA000
00FFFFA000
ENDCHAR
STARTCHAR  00F2
ENCODING  242
SWIDTH  1000 0
DWIDTH  8 0
BBX  7 15 0 0
BITMAP
00108080000000
000060FFA00000
00000060FF6000
00000000000000
0080E0FFC03000
80FFF0E0FFF020
F0FFA010FFFF80
FFFFA000FFFF80
FFFFA000FFFFA0
FFFFA000FFFFA0
FFFFA000FFFFA0
FFFFA000FFFF80
F0FFA010FFFF80
80FFF0E0FFF020
0080E0FFC03000
ENDCHAR
STARTCHAR  00F3
ENCODING  243
SWIDTH  1000 0
DWIDTH  8 0
BBX  7 15 0 0
BITMAP
00000030806000
000010E0E02000
0000C0E0200000
00000000000000
0080E0FFC03000
80FFF0E0FFF020
F0FFA010FFFF80
FFFFA000FFFF80
FFFFA000FFFFA0
FFFFA000FFFFA0
FFFFA000FFFFA0
FFFFA000FFFF80
F0FFA010FFFF80
80FFF0E0FFF020
0080E0FFC03000
ENDCHAR
STARTCHAR  00F7
ENCODING  247
SWIDTH  1000 0
DWIDTH  9 0
BBX  7 7 1 2
BITMAP
000030FF000000
000020A0000000
00000000000000
FFFFFFFFFFFFFF
C0C0C0C0C0C0C0
000020A0000000
000030FF000000
ENDCHAR
STARTCHAR  00F9
ENCODING  249
SWIDTH  1000 0
DWIDTH  8 0
BBX  7 15 0 0
BITMAP
00208060000000
000080FF800000
00000080FF4000
00000000000000
FFFFA000FFFFA0
FFFFA000FFFFA0
FFFFA000FFFFA0
FFFFA000FFFFA0
FFFFA000FFFFA0
FFFFA000FFFFA0
FFFFA000FFFFA0
FFFFA000FFFFA0
FFFFA010FFFFA0
C0FFF0C0FFFFA0
20E0FFC0FFFFA0
ENDCHAR
STARTCHAR  00FA
ENCODING  250
SWIDTH  1000 0
DWIDTH  8 0
BBX  7 15 0 0
BITMAP
00000040804000
000030FFC01000
0020E0C0100000
00000000000000
FFFFA000FFFFA0
FFFFA000FFFFA0
FFFFA000FFFFA0
FFFFA000FFFFA0
FFFFA000FFFFA0
FFFFA000FFFFA0
FFFFA000FFFFA0
FFFFA000FFFFA0
FFFFA010FFFFA0
C0FFF0C0FFFFA0
20E0FFC0FFFFA0
ENDCHAR
STARTCHAR  00FC
ENCODING  252
SWIDTH  1000 0
DWIDTH  8 0
BBX  7 13 0 0
BITMAP
E0FF0000FFE000
A0C00000C0A000
FFFFA000FFFFA0
FFFFA000FFFFA0
FFFFA000FFFFA0
FFFFA000FFFFA0
FFFFA000FFFFA0
FFFFA000FFFFA0
FFFFA000FFFFA0
FFFFA000FFFFA0
FFFFA010FFFFA0
C0FFF0C0FFFFA0
20E0FFC0FFFFA0
ENDCHAR
STARTCHAR  2014
ENCODING  8212
SWIDTH  1000 0
DWIDTH  9 0
BBX  8 2 1 4
BITMAP
C0C0C0C0C0C0C0C0
FFFFFFFFFFFFFFFF
ENDCHAR
STARTCHAR  2018
ENCODING  8216
SWIDTH  1000 0
DWIDTH  4 0
BBX  3 5 0 9
BITMAP
003000
60E010
FFE080
FFFFA0
FFFFA0
ENDCHAR
STARTCHAR  2019
ENCODING  8217
SWIDTH  1000 0
DWIDTH  4 0
BBX  3 5 0 8
BITMAP
FFFFA0
FFFFA0
E0F080
60E010
102000
ENDCHAR
STARTCHAR  201C
ENCODING  8220
SWIDTH  1000 0
DWIDTH  7 0
BBX  6 5 0 9
BITMAP
003000002010
60E01010E060
FFE08080F0E0
FFFFA0A0FFFF
FFFFA0A0FFFF
ENDCHAR
STARTCHAR  201D
ENCODING  8221
SWIDTH  1000 0
DWIDTH  7 0
BBX  6 5 0 8
BITMAP
FFFFA0A0FFFF
FFFFA0A0FFFF
E0F08080E0FF
60E01010E060
102000003000
ENDCHAR
STARTCHAR  2026
ENCODING  8230
SWIDTH  1000 0
DWIDTH  12 0
BBX  11 3 0 0
BITMAP
E0E08000E0E0800080E0E0
FFFFA000FFFFA000A0FFFF
FFFFA000FFFFA000A0FFFF
ENDCHAR
STARTCHAR  2030
ENCODING  8240
SWIDTH  1000 0
DWIDTH  14 0
BBX  13 13 0 0
BITMAP
00000000000080FF4000000000
A0F0A0000010F0C00000000000
FF20FF000080FF400000000000
FF00FF0010F0C0000000000000
FF20FF0080FF30000000000000
A0F0A010F0C000000000000000
00000080FF3000000000000000
000010F0A00080F0A00080F0A0
000080FF3000FF40FF00FF40FF
0010F0A00000FF00FF00FF00FF
0080FF300000FF20FF00FF20FF
10F0A0000000A0F0A000A0F0A0
80FF2000000000000000000000
ENDCHAR
ENDFONT
